<?xml version="1.0" encoding="utf-8"?>
<!-- Generator: Adobe Illustrator 18.1.1, SVG Export Plug-In . SVG Version: 6.00 Build 0)  -->
<svg version="1.1" id="Layer_1" xmlns="http://www.w3.org/2000/svg" xmlns:xlink="http://www.w3.org/1999/xlink" x="0px" y="0px"
	 viewBox="-1587.5 -701.6 1901.8 1849.8" enable-background="new -1587.5 -701.6 1901.8 1849.8" xml:space="preserve">
<g transform="translate(0.000000, -1.000000)">
	<path fill="#B3B3B3" d="M-639.5-688.6l-941.1,305.9l150.7,1132.6l794.6,399.3L161.9,742L308.7-391.2L-639.5-688.6z"/>
	<path fill="#A6120D" d="M214.7-325.3l-856.5-266.8l2.9,1645.7L78,687.9L214.7-325.3z"/>
	<path fill="#DD1B16" d="M-1474.9-318l129.3,1013.2l706.8,358.8l-2.9-1645.7L-1474.9-318z"/>
	<path fill="#F2F2F2" d="M-404.5,283.7l-235.6,101.6l-248.2,0.3L-1004.7,654l-217.1,3.9l580.1-1190.1L-404.5,283.7L-404.5,283.7z
		 M-427.2,232.9L-639.1-151l-172.7,377.9l171.8-0.3L-427.2,232.9L-427.2,232.9z"/>
	<path fill="#B3B3B3" d="M-641.4-532.2l2.3,381.5l197.4,377.5l-197.7,0.3l-0.3,158.2l273.5-0.3L-238,656.7l207.7,3.3L-641.4-532.2z"
		/>
</g>
</svg>
