<?xml version="1.0" encoding="utf-8"?>
<!-- Generator: Adobe Illustrator 18.1.1, SVG Export Plug-In . SVG Version: 6.00 Build 0)  -->
<svg version="1.1" id="Layer_1" xmlns="http://www.w3.org/2000/svg" xmlns:xlink="http://www.w3.org/1999/xlink" x="0px" y="0px"
	 viewBox="0 0 600 600" enable-background="new 0 0 600 600" xml:space="preserve">
<g>
	<g>
		<polygon fill="#CCCCCC" points="27.4,299.3 27.4,239.6 35.1,239.6 71.7,287.7 71.7,239.6 79,239.6 79,299.3 71.2,299.3 
			34.7,250.8 34.7,299.3 27.4,299.3 		"/>
		<path fill="#CCCCCC" d="M138.3,297c-4.8,1.8-10,2.8-15.6,2.8c-21.6,0-32.5-10.4-32.5-31.1c0-19.6,10.4-29.5,31.3-29.5
			c6,0,11.6,0.8,16.7,2.5v6.7c-5.1-2-10.4-2.9-15.9-2.9c-16.3,0-24.4,7.7-24.4,23.2c0,16.6,8,24.9,24.1,24.9c2.6,0,5.4-0.3,8.5-1
			v-20.3h7.7V297L138.3,297z"/>
		<path fill="#CCCCCC" d="M150.6,276.3v-36.7h7.7v36.7c0,11.5,5.7,17.2,17.1,17.2c11.4,0,17.1-5.7,17.1-17.2v-36.7h7.7v36.7
			c0,15.7-8.3,23.5-24.9,23.5C158.9,299.7,150.6,291.9,150.6,276.3L150.6,276.3z"/>
		<polygon fill="#CCCCCC" points="221.8,239.6 221.8,293.1 253.1,293.1 253.1,299.3 214.1,299.3 214.1,239.6 221.8,239.6 		"/>
		<polygon fill="#CCCCCC" points="264.2,299.3 256.2,299.3 285.9,231.7 315.6,299.3 307.1,299.3 299.3,280.5 279.6,280.5 
			281.7,274.3 296.7,274.3 285.6,247.2 		"/>
		<path fill="#CCCCCC" d="M323.8,299.3v-59.7h25.5c11.4,0,17,4.8,17,14.3c0,7.8-5.6,13.5-16.7,17.3l20.5,28.2h-10.2l-19-26.9v-5.1
			c11.4-1.8,17.1-6.2,17.1-13.2c0-5.5-3.2-8.3-9.5-8.3h-17v53.4L323.8,299.3L323.8,299.3L323.8,299.3z"/>
		<path fill="#CCCCCC" d="M399.1,239.6v42.5c0,11.5-6.8,17.2-20.3,17.2v-6.3c8.4,0,12.5-3.7,12.5-10.9v-42.5H399.1L399.1,239.6z"/>
		<path fill="#CCCCCC" d="M412.9,297.2v-7.1c6.3,2.2,13,3.3,20.3,3.3c10.3,0,15.4-3.8,15.4-11.3c0-6.4-3.8-9.6-11.4-9.6h-7.7
			c-12.5,0-18.8-5.4-18.8-16.3c0-11.4,8-17.1,24-17.1c7,0,13.4,0.8,19.4,2.5v7.1c-6-2.2-12.5-3.3-19.4-3.3
			c-10.9,0-16.3,3.6-16.3,10.9c0,6.4,3.7,9.6,11,9.6h7.7c12.7,0,19.1,5.4,19.1,16.3c0,11.7-7.7,17.6-23.1,17.6
			C425.9,299.7,419.1,298.9,412.9,297.2L412.9,297.2z"/>
		<polygon points="29.3,297.4 29.3,237.6 37.1,237.6 73.6,285.8 73.6,237.6 80.9,237.6 80.9,297.4 73.2,297.4 36.6,248.8 
			36.6,297.4 		"/>
		<path d="M140.2,295c-4.8,1.8-10,2.8-15.6,2.8c-21.6,0-32.5-10.4-32.5-31.1c0-19.6,10.4-29.5,31.3-29.5c6,0,11.6,0.8,16.7,2.5v6.7
			c-5.1-2-10.4-2.9-15.9-2.9c-16.3,0-24.4,7.7-24.4,23.2c0,16.6,8,24.9,24.1,24.9c2.6,0,5.4-0.3,8.5-1v-20.3h7.7L140.2,295
			L140.2,295z"/>
		<path d="M152.6,274.3v-36.7h7.7v36.7c0,11.5,5.7,17.2,17.1,17.2c11.4,0,17.1-5.7,17.1-17.2v-36.7h7.7v36.7
			c0,15.7-8.3,23.5-24.9,23.5C160.8,297.8,152.6,290,152.6,274.3L152.6,274.3z"/>
		<polygon points="223.8,237.6 223.8,291.1 255,291.1 255,297.4 216.1,297.4 216.1,237.6 223.8,237.6 		"/>
		<polygon points="266.2,297.4 258.2,297.4 287.9,229.7 317.6,297.4 309,297.4 301.3,278.6 281.5,278.6 283.7,272.3 298.7,272.3 
			287.5,245.2 		"/>
		<path d="M325.7,297.4v-59.7h25.5c11.4,0,17,4.8,17,14.3c0,7.8-5.5,13.5-16.7,17.3l20.5,28.2h-10.2l-19-26.9v-5.1
			c11.4-1.8,17.1-6.2,17.1-13.2c0-5.5-3.2-8.3-9.5-8.3h-17v53.3H325.7L325.7,297.4z"/>
		<path fill="#A6120D" d="M401,237.6v42.5c0,11.5-6.8,17.2-20.3,17.2v-6.3c8.4,0,12.5-3.7,12.5-10.9v-42.5H401L401,237.6z"/>
		<path fill="#A6120D" d="M414.8,295.3v-7.1c6.3,2.2,13,3.3,20.3,3.3c10.3,0,15.4-3.8,15.4-11.3c0-6.4-3.8-9.6-11.4-9.6h-7.7
			c-12.5,0-18.8-5.4-18.8-16.3c0-11.4,8-17.1,24-17.1c7,0,13.4,0.8,19.4,2.5v7.1c-6-2.2-12.5-3.3-19.4-3.3
			c-10.9,0-16.3,3.6-16.3,10.9c0,6.4,3.7,9.6,11,9.6h7.7c12.7,0,19.1,5.4,19.1,16.3c0,11.7-7.7,17.5-23.1,17.5
			C427.9,297.8,421.1,296.9,414.8,295.3L414.8,295.3z"/>
	</g>
	<g>
		<polygon fill="#B3B3B3" points="79.8,225.9 10,250.4 21,341.8 79.8,374.1 139,341.4 150,250 		"/>
		<polygon fill="#A6120D" points="143,255.3 79.6,233.6 79.6,366.4 132.8,337 		"/>
		<polygon fill="#DD1B16" points="17.8,255.6 27.3,337.4 79.6,366.4 79.6,233.6 		"/>
		<path fill="#F2F2F2" d="M97.1,304.3l-17.5,8.2H61.2l-8.6,21.6l-16.1,0.3l43.1-96L97.1,304.3L97.1,304.3z M95.4,300.2l-15.7-31
			l-12.8,30.5h12.7L95.4,300.2L95.4,300.2z"/>
		<polygon fill="#B3B3B3" points="79.6,238.5 79.7,269.2 94.3,299.7 79.6,299.7 79.6,312.5 99.9,312.5 109.3,334.4 124.7,334.7 		
			"/>
	</g>
</g>
</svg>
