<?xml version="1.0" encoding="utf-8"?>
<!-- Generator: Adobe Illustrator 18.1.1, SVG Export Plug-In . SVG Version: 6.00 Build 0)  -->
<svg version="1.1" id="图层_1" xmlns="http://www.w3.org/2000/svg" xmlns:xlink="http://www.w3.org/1999/xlink" x="0px" y="0px"
	 viewBox="0 0 62.4 85" enable-background="new 0 0 62.4 85" xml:space="preserve">
<polyline fill="#4B4B4D" points="31.2,83.4 8,76.9 2.8,18.9 59.7,18.9 54.5,76.9 "/>
<polyline fill="#4B4B4D" points="50.1,73.2 54.5,23.7 31.3,23.7 31.3,78.5 "/>
<polyline fill="#4B4B4D" points="32.7,3.1 32.7,6.1 35.8,10.5 33,10.5 33,14 41.6,14 41.6,10.6 38.7,7 41.6,7 41.6,3.1 "/>
<polyline fill="#4B4B4D" points="32.5,30.8 32.5,37.9 48.5,37.5 49.1,30.8 "/>
<polyline fill="#4B4B4D" points="45.9,45.2 32.5,45.2 32.5,52.3 41.6,51.7 40.8,61.2 32.5,63.3 32.5,70.7 45.8,67 45.9,65.8 
	47.6,47.1 47.8,45.2 "/>
<polyline fill="#4B4B4D" points="38.4,48.8 32.5,48.8 32.5,34.3 39.1,34.3 "/>
<polyline fill="#4B4B4D" points="29.7,63.3 20.5,60.7 20.2,56.7 15.6,55.9 16.6,67 29.7,70.7 "/>
<polyline fill="#4B4B4D" points="29.7,30.8 23.7,30.8 24.9,67.3 29.7,67.3 "/>
<polyline fill="#4B4B4D" points="26,3.1 26,10.4 24.5,10.4 24.5,9 20.9,9 20.9,14 29.6,14 29.6,3.1 "/>
<polyline fill="#F48131" points="31.2,83.4 8,76.9 2.8,18.9 59.7,18.9 54.5,76.9 "/>
<polyline fill="#F99C35" points="50.1,73.2 54.5,23.7 31.3,23.7 31.3,78.5 "/>
<polyline fill-rule="evenodd" clip-rule="evenodd" points="32.7,3.1 32.7,6.1 35.8,10.5 33,10.5 33,14 41.6,14 41.6,10.6 38.7,7 
	41.6,7 41.6,3.1 "/>
<polyline fill="#FFFFFF" points="32.5,30.8 32.5,37.9 48.5,37.5 49.1,30.8 "/>
<polyline fill="#FFFFFF" points="45.9,45.2 32.5,45.2 32.5,52.3 41.6,51.7 40.8,61.2 32.5,63.3 32.5,70.7 45.8,67 45.9,65.8 
	47.6,47.1 47.8,45.2 "/>
<polyline fill="#FFFFFF" points="38.4,48.8 32.5,48.8 32.5,34.3 39.1,34.3 "/>
<polyline fill="#EBEBEC" points="29.7,63.3 20.5,60.7 20.2,56.7 15.6,55.9 16.6,67 29.7,70.7 "/>
<polyline fill="#EBEBEC" points="29.7,30.8 23.7,30.8 24.9,67.3 29.7,67.3 "/>
<polyline fill-rule="evenodd" clip-rule="evenodd" points="26,3.1 26,10.4 24.5,10.4 24.5,9 20.9,9 20.9,14 29.6,14 29.6,3.1 "/>
</svg>
