<?xml version="1.0" standalone="no"?>
<!DOCTYPE svg PUBLIC "-//W3C//DTD SVG 20010904//EN"
 "http://www.w3.org/TR/2001/REC-SVG-20010904/DTD/svg10.dtd">
<svg version="1.0" xmlns="http://www.w3.org/2000/svg"
 width="86.000000pt" height="86.000000pt" viewBox="0 0 86.000000 86.000000"
 preserveAspectRatio="xMidYMid meet">
<metadata>
Created by potrace 1.16, written by Peter Selinger 2001-2019
</metadata>
<g transform="translate(0.000000,86.000000) scale(0.021500,-0.017200)"
fill="#000000" stroke="none">
<path d="M1780 4225 l0 -165 -25 0 c-18 0 -25 5 -25 20 0 18 -7 20 -85 20
l-85 0 0 -95 0 -95 190 0 190 0 0 240 0 240 -80 0 -80 0 0 -165z"/>
<path d="M2010 4318 l0 -73 97 -97 98 -98 -98 0 -97 0 0 -70 0 -70 215 0 215
0 0 68 0 68 -90 100 -90 99 90 3 90 3 0 69 0 70 -215 0 -215 0 0 -72z"/>
</g>
</svg>
