<?xml version="1.0" standalone="no"?>
<!DOCTYPE svg PUBLIC "-//W3C//DTD SVG 20010904//EN"
 "http://www.w3.org/TR/2001/REC-SVG-20010904/DTD/svg10.dtd">
<svg version="1.0" xmlns="http://www.w3.org/2000/svg"
 width="65.000000pt" height="50.000000pt" viewBox="0 0 65.000000 50.000000"
 preserveAspectRatio="xMidYMid meet">
<metadata>
Created by potrace 1.16, written by Peter Selinger 2001-2019
</metadata>
<g transform="translate(0.000000,50.000000) scale(0.011733,-0.009025)"
fill="#000000" stroke="none">
<path d="M1805 3853 c-272 -25 -462 -125 -538 -283 -19 -38 -22 -62 -22 -160
0 -150 26 -224 133 -386 72 -109 96 -130 48 -42 -67 122 -81 172 -81 288 1
128 19 175 98 254 267 268 986 216 1661 -120 431 -214 739 -467 914 -749 106
-173 135 -346 79 -470 -61 -131 -199 -223 -392 -261 l-70 -14 95 6 c204 13
377 80 474 185 71 77 96 142 96 252 -1 104 -12 151 -60 254 -61 130 -134 227
-285 378 -203 204 -408 352 -699 505 -489 258 -1055 399 -1451 363z"/>
<path d="M1795 3574 c-186 -33 -330 -146 -359 -281 l-7 -32 40 38 c57 54 142
96 256 127 90 24 118 27 280 28 174 0 234 -6 405 -41 449 -92 893 -320 1180
-603 226 -224 309 -454 227 -633 -43 -94 -156 -181 -287 -221 -69 -21 -16 -18
78 4 104 25 219 81 281 136 26 23 61 70 79 104 28 56 32 72 32 146 0 166 -84
327 -269 513 -179 182 -394 332 -646 450 -49 24 -98 47 -107 52 -45 23 -216
86 -328 121 -131 40 -312 80 -443 98 -108 14 -316 11 -412 -6z"/>
<path d="M2127 3379 c-9 -12 -103 -239 -208 -503 -106 -265 -203 -498 -216
-518 -17 -28 -36 -42 -73 -55 -27 -10 -50 -21 -50 -25 0 -11 277 -10 284 0 3
5 -4 16 -16 26 -28 24 -21 64 37 219 l46 124 107 18 c224 36 240 53 54 57
l-129 3 38 105 c78 211 102 271 109 263 4 -4 14 -28 23 -53 9 -25 72 -196 141
-381 69 -185 126 -341 126 -347 0 -7 -4 -12 -10 -12 -5 0 -10 -7 -10 -15 0
-13 23 -15 144 -15 128 0 144 -2 149 -17 3 -10 28 -72 55 -138 27 -66 66 -160
86 -209 71 -172 79 -191 94 -208 8 -10 19 -18 24 -18 10 0 59 101 148 310 32
74 100 227 150 340 51 113 108 242 127 288 39 91 88 152 123 152 13 0 20 5 17
13 -2 8 -36 12 -118 13 -63 1 -124 -1 -136 -4 -28 -5 -31 -22 -4 -22 41 0 45
-25 17 -103 -63 -172 -274 -691 -282 -694 -11 -3 -274 693 -281 745 -5 37 -4
40 28 52 31 11 32 13 14 20 -11 5 -65 6 -120 4 -55 -3 -126 -2 -158 3 l-58 8
-113 283 c-62 156 -120 290 -128 299 -14 13 -17 13 -31 -8z m332 -646 c12 -10
55 -98 95 -195 86 -206 91 -218 77 -218 -19 0 -69 85 -116 200 -103 248 -104
252 -56 213z"/>
</g>
</svg>
