<?xml version="1.0" standalone="no"?>
<!DOCTYPE svg PUBLIC "-//W3C//DTD SVG 20010904//EN"
 "http://www.w3.org/TR/2001/REC-SVG-20010904/DTD/svg10.dtd">
<svg version="1.0" xmlns="http://www.w3.org/2000/svg"
 width="80.000000pt" height="80.000000pt" viewBox="0 0 80.000000 80.000000"
 preserveAspectRatio="xMidYMid meet">
<metadata>
Created by potrace 1.16, written by Peter Selinger 2001-2019
</metadata>
<g transform="translate(0.000000,80.000000) scale(0.031250,-0.031250)"
fill="#000000" stroke="none">
<path d="M2130 2440 c0 -5 -21 -20 -47 -32 -60 -28 -120 -88 -145 -144 -23
-53 -17 -67 28 -62 19 2 34 2 34 -1 0 -10 -105 -189 -151 -258 -27 -39 -66
-119 -88 -178 -22 -58 -51 -124 -63 -146 -26 -47 -28 -45 -68 76 -26 76 -28
80 -58 81 -55 2 -59 -7 -35 -88 16 -53 18 -75 10 -80 -33 -20 -87 92 -188 390
-44 130 -91 256 -104 280 -13 23 -18 39 -12 35 19 -12 66 -10 71 3 6 14 -58
76 -101 98 -18 9 -48 16 -67 16 -43 0 -165 -41 -204 -69 -38 -26 -40 -26 -71
3 -36 34 -110 64 -146 59 -54 -8 -127 -56 -179 -119 -65 -79 -119 -171 -244
-414 -89 -172 -103 -207 -121 -297 -12 -55 -21 -106 -21 -112 0 -7 29 -11 80
-11 138 0 182 37 288 239 l63 121 -43 0 c-24 0 -50 -6 -57 -12 -19 -18 31 71
97 171 71 108 157 211 233 279 l59 54 10 -27 c5 -14 10 -31 10 -36 0 -14 16
-11 31 7 11 14 13 14 21 0 11 -19 42 -22 33 -3 -4 6 1 3 10 -8 32 -38 87 -158
147 -319 85 -230 160 -362 223 -396 31 -17 23 -30 -18 -30 -35 0 -64 16 -113
62 -29 27 -35 29 -67 20 -26 -7 -37 -7 -41 1 -3 8 -5 8 -5 -1 -1 -8 -6 -10
-13 -6 -8 5 -7 -2 3 -16 19 -30 105 -90 128 -90 9 1 0 8 -19 16 -43 19 -100
62 -100 76 0 6 7 5 17 -3 15 -12 16 -12 8 1 -8 13 -6 13 8 2 9 -8 15 -19 14
-25 -1 -7 18 -22 43 -35 44 -22 50 -23 330 -20 330 3 310 -2 430 112 41 39 66
60 55 46 l-20 -25 28 24 c27 24 36 38 17 26 -17 -10 -11 12 7 26 11 10 14 10
9 2 -11 -19 -1 -16 15 4 10 11 10 14 2 9 -19 -11 -16 9 4 25 11 10 14 10 9 2
-11 -19 -1 -16 15 4 12 14 12 16 0 8 -11 -6 -13 -4 -8 8 4 11 1 17 -8 17 -20
0 -19 4 10 54 20 34 22 43 10 44 -8 1 -22 3 -30 4 -8 1 -15 4 -15 7 0 4 62
131 138 284 l137 277 -107 0 c-65 0 -108 -4 -108 -10z"/>
<path d="M1793 1319 c-6 -6 -9 -18 -6 -27 4 -8 2 -13 -3 -9 -6 3 -8 -8 -6 -29
4 -29 1 -34 -17 -34 -14 0 -21 -6 -21 -20 0 -13 7 -20 20 -20 19 0 20 -7 20
-89 0 -91 5 -106 34 -95 13 5 16 23 16 95 l0 89 45 0 45 0 0 -69 c0 -38 3 -77
7 -87 5 -13 3 -15 -8 -9 -8 5 -5 -1 5 -13 19 -22 32 -30 22 -13 -3 4 11 8 32
7 31 -1 37 3 40 22 3 18 -1 22 -20 20 -22 -3 -23 1 -26 60 -3 59 -2 62 21 62
29 0 47 18 46 44 -1 18 -2 17 -8 -4 -5 -20 -14 -25 -41 -26 l-35 -2 33 5 c23
3 32 9 32 24 0 14 -7 19 -28 19 -26 0 -28 3 -24 31 4 30 3 32 -22 25 -21 -5
-26 -4 -20 6 6 11 5 11 -8 0 -18 -14 -31 -52 -18 -52 5 0 11 10 13 23 4 19 4
18 6 -5 1 -27 -1 -28 -44 -28 -43 0 -45 1 -45 30 0 27 3 30 30 30 23 0 30 5
30 19 0 24 -32 36 -59 22 -25 -14 -34 -14 -26 -1 8 13 2 13 -12 -1z"/>
<path d="M312 1153 c3 -133 5 -158 18 -158 12 0 16 21 20 109 l5 109 43 -96
c41 -94 52 -127 31 -97 -8 12 -10 12 -7 1 2 -8 16 -16 30 -18 23 -3 29 4 73
104 26 60 48 109 49 110 0 1 -1 -47 -2 -106 -3 -94 -1 -109 13 -115 9 -3 21
-4 26 0 5 3 9 75 9 160 l0 155 -26 -3 c-24 -3 -33 -17 -79 -119 l-51 -117 -50
117 c-45 103 -54 116 -78 119 l-27 3 3 -158z"/>
<path d="M1149 1220 l-24 -22 25 16 c13 9 31 16 40 16 8 -1 1 -7 -17 -15 -17
-7 -39 -25 -48 -39 -18 -27 -27 -136 -12 -133 5 1 12 -4 15 -12 3 -10 0 -11
-9 -5 -11 6 -11 4 0 -10 21 -25 66 -46 98 -45 25 1 25 2 -7 8 -35 7 -80 28
-80 37 0 2 13 -2 30 -11 56 -29 123 -11 150 41 17 32 18 110 2 126 -7 7 -12
16 -12 22 0 16 29 -28 30 -45 0 -8 14 -28 32 -45 17 -16 28 -23 24 -16 -9 15
-4 15 28 1 30 -14 42 -39 24 -51 -13 -9 -40 -6 -70 7 -15 6 -18 2 -18 -18 0
-22 6 -27 36 -33 20 -4 46 -2 60 5 32 14 37 14 29 -1 -4 -7 4 0 18 15 17 21
22 36 18 55 -5 25 -5 24 -11 -11 -4 -20 -10 -40 -13 -43 -3 -4 -3 10 0 30 7
42 -10 67 -58 86 -18 8 -29 20 -29 33 0 17 5 19 43 15 42 -5 43 -4 39 18 -2
13 -12 24 -21 25 -12 0 -11 2 4 9 40 17 -6 10 -55 -9 -55 -21 -65 -20 -22 3
15 8 22 15 16 16 -43 1 -67 -74 -38 -119 l17 -26 -21 19 c-12 11 -22 26 -22
35 0 9 -12 30 -26 46 -14 17 -22 24 -18 16 4 -9 2 -12 -7 -9 -8 3 -14 11 -14
19 0 7 -9 15 -20 16 l-20 3 20 -10 c17 -9 15 -10 -10 -5 -16 2 -39 7 -51 10
-13 4 -29 -1 -45 -15z m120 -71 c18 -33 7 -95 -20 -110 -53 -28 -110 26 -94
88 10 43 25 54 64 51 26 -2 39 -10 50 -29z"/>
<path d="M1540 1202 c-22 -22 -40 -48 -40 -58 1 -13 5 -9 14 12 15 35 61 74
85 74 9 -1 2 -7 -16 -15 -17 -7 -39 -25 -49 -40 -20 -30 -23 -110 -6 -127 16
-16 15 -31 0 -22 -8 5 -8 1 1 -10 21 -25 66 -46 98 -45 25 1 25 2 -7 8 -35 7
-80 28 -80 37 0 2 13 -2 30 -11 16 -8 41 -15 55 -15 14 0 39 7 55 15 38 20 40
11 3 -9 -16 -8 -23 -15 -16 -16 7 0 25 12 40 26 15 14 22 22 14 18 -9 -4 -12
-2 -9 7 3 8 10 13 15 12 13 -2 8 116 -6 130 -6 6 -11 15 -11 21 0 5 7 1 16
-10 15 -18 15 -18 4 3 -5 12 -15 25 -22 29 -7 5 -8 3 -3 -6 5 -8 3 -11 -6 -8
-8 3 -14 11 -14 19 0 7 -9 15 -20 16 l-20 3 20 -10 c17 -9 15 -10 -10 -5 -16
2 -40 7 -53 11 -17 5 -31 -2 -62 -34z m136 -47 c12 -18 15 -37 11 -63 -11 -64
-59 -81 -104 -36 -21 21 -24 32 -20 61 8 48 23 63 63 63 25 0 38 -7 50 -25z"/>
<path d="M796 1207 c-20 -18 -20 -18 9 -1 l30 18 -24 -27 c-13 -14 -28 -25
-34 -24 -5 1 -12 -5 -14 -13 -3 -11 -2 -12 5 -2 5 8 7 -8 4 -42 -4 -53 -3 -57
31 -91 35 -35 64 -42 115 -29 26 7 31 48 6 58 -8 3 -12 2 -9 -4 11 -18 -44
-23 -70 -6 -20 13 -25 25 -25 60 0 29 6 48 18 59 20 18 68 22 91 8 10 -6 0 -8
-27 -4 -48 6 -73 -8 -71 -41 1 -19 2 -18 8 4 6 22 12 25 57 25 49 0 49 0 46
30 -2 17 -6 32 -7 34 -2 2 -30 4 -61 5 -43 1 -62 -3 -78 -17z"/>
<path d="M1008 1223 l-28 -4 0 -109 c0 -60 4 -111 9 -114 5 -4 16 -3 25 0 13
5 16 22 16 83 0 47 5 82 12 89 14 14 44 16 52 4 2 -4 -7 -8 -22 -7 -18 0 -27
-6 -28 -18 -1 -12 -1 -13 3 -2 6 21 43 19 43 -2 0 -11 8 -3 18 17 10 19 16 42
13 50 -4 10 -7 7 -12 -10 l-7 -25 -1 24 c-1 21 -4 23 -36 18 -21 -3 -33 -2
-30 4 4 5 5 8 3 8 -2 -1 -15 -4 -30 -6z"/>
<path d="M310 515 l0 -395 50 0 50 0 0 322 0 321 40 -62 c42 -65 47 -77 28
-65 -7 4 -8 3 -4 -5 4 -6 11 -9 15 -7 4 3 81 -110 172 -249 l164 -255 63 0 62
0 0 395 0 395 -55 0 -56 0 3 -320 c3 -265 1 -317 -10 -303 -7 10 -99 154 -205
320 l-192 303 -62 0 -63 0 0 -395z"/>
<path d="M1100 515 l0 -395 215 0 215 0 0 50 0 50 -150 0 -150 0 -2 123 -2
122 -6 -130 -6 -130 -2 135 -2 135 140 -3 140 -3 0 50 0 51 -140 0 -140 0 2
128 2 127 3 -122 4 -123 137 2 137 2 -132 3 -133 4 0 109 0 110 140 0 140 0 0
50 0 50 -205 0 -205 0 0 -395z"/>
<path d="M1602 863 l3 -48 103 -3 102 -3 2 -347 3 -347 5 355 5 355 3 -352 2
-353 50 0 50 0 3 348 2 347 0 -350 0 -350 -55 -6 -55 -6 50 -1 c29 -1 56 3 63
10 9 9 12 101 12 355 l0 342 103 3 102 3 3 48 3 47 -281 0 -281 0 3 -47z"/>
<path d="M89 255 c-1 -3 -2 -8 -3 -12 -1 -5 -10 -21 -20 -36 -16 -23 -17 -32
-7 -53 14 -32 14 -37 -1 -29 -7 4 -2 -3 11 -14 33 -29 72 -27 102 7 33 35 32
81 0 116 -21 23 -78 37 -82 21z"/>
</g>
</svg>
